<svg width="25" height="25" viewBox="0 0 25 25" fill="none" xmlns="http://www.w3.org/2000/svg">
<g clip-path="url(#clip0_136_1417)">
<path d="M21.1703 2.35059H4.85701C3.15138 2.35059 1.76367 3.73802 1.76367 5.44393V15.4273C1.76367 17.1294 3.14534 18.5146 4.84602 18.5207V23.051L11.3567 18.5207H21.1703C22.876 18.5207 24.2637 17.133 24.2637 15.4273V5.44393C24.2637 3.73802 22.876 2.35059 21.1703 2.35059ZM22.9453 15.4273C22.9453 16.4059 22.1491 17.2023 21.1703 17.2023H10.943L6.16438 20.5276V17.2023H4.85701C3.87827 17.2023 3.08203 16.4059 3.08203 15.4273V5.44393C3.08203 4.46504 3.87827 3.66895 4.85701 3.66895H21.1703C22.1491 3.66895 22.9453 4.46504 22.9453 5.44393V15.4273Z" fill="black"/>
<path d="M7.78516 7.00879H18.2411V8.32715H7.78516V7.00879Z" fill="black"/>
<path d="M7.78516 9.82129H18.2411V11.1397H7.78516V9.82129Z" fill="black"/>
<path d="M7.78516 12.6338H18.2411V13.9522H7.78516V12.6338Z" fill="black"/>
</g>
<defs>
<clipPath id="clip0_136_1417">
<rect width="24" height="24" fill="white" transform="translate(0.5 0.733398)"/>
</clipPath>
</defs>
</svg>
