<svg width="21" height="21" viewBox="0 0 21 21" fill="none" xmlns="http://www.w3.org/2000/svg">
<path d="M18.0469 0.23125C19.2199 0.23125 20.2125 1.22383 20.2125 2.39687V18.2781C20.2125 19.4963 19.2199 20.4438 18.0469 20.4438H2.16563C0.947461 20.4438 0 19.4963 0 18.2781V2.39687C0 1.22383 0.947461 0.23125 2.16563 0.23125H18.0469ZM8.03086 10.6533C8.48203 10.9691 9.42949 11.8264 10.1063 11.7812C10.7379 11.8264 11.6854 10.9691 12.1365 10.6533C16.2422 7.67559 16.1971 7.67559 17.325 6.81836V5.64531C17.325 5.05879 16.8287 4.5625 16.2422 4.5625H3.97031C3.33867 4.5625 2.8875 5.05879 2.8875 5.64531V6.81836C3.97031 7.67559 3.9252 7.67559 8.03086 10.6533ZM17.325 8.62305C16.6934 9.11934 15.791 9.79609 12.9938 11.7812C12.4072 12.2324 11.2793 13.2701 10.0611 13.225C8.88809 13.2701 7.80527 12.2775 7.17363 11.7812C4.37637 9.79609 3.47402 9.11934 2.8875 8.62305V15.0297C2.8875 15.6613 3.33867 16.1125 3.97031 16.1125H16.2422C16.8287 16.1125 17.325 15.6613 17.325 15.0297V8.62305Z" fill="#A5ACBA"/>
</svg>
