<svg width="25" height="25" viewBox="0 0 25 25" fill="none" xmlns="http://www.w3.org/2000/svg">
<g clip-path="url(#clip0_136_1395)">
<mask id="mask0_136_1395" style="mask-type:luminance" maskUnits="userSpaceOnUse" x="1" y="0" width="25" height="25">
<path d="M25.0254 0.733398H1.02539V24.7334H25.0254V0.733398Z" fill="white"/>
</mask>
<g mask="url(#mask0_136_1395)">
<path d="M24.4891 1.29049C24.1398 0.935413 23.6731 0.737595 23.1751 0.733465L23.1594 0.733398C22.1398 0.733398 21.3034 1.56304 21.295 2.58277C21.2909 3.08085 21.4809 3.55075 21.8303 3.90583C22.1796 4.2609 22.6463 4.45872 23.1444 4.46285L23.16 4.46291C24.1796 4.46291 25.016 3.63328 25.0244 2.61354C25.0285 2.11547 24.8384 1.64556 24.4891 1.29049ZM23.1599 3.77401L23.15 3.77395C22.836 3.77135 22.5417 3.6466 22.3215 3.42273C22.1012 3.19881 21.9814 2.90254 21.984 2.5885C21.9892 1.94549 22.5165 1.42237 23.1594 1.42237L23.1693 1.42243C23.4834 1.42503 23.7776 1.54978 23.9978 1.77365C24.2181 1.99757 24.338 2.29384 24.3354 2.60788C24.3301 3.25089 23.8028 3.77401 23.1599 3.77401Z" fill="black"/>
<path d="M2.90553 10.8687H2.88988C1.87021 10.8687 1.03385 11.6983 1.02545 12.7181C1.017 13.7462 1.84657 14.5896 2.87476 14.5982H2.89035C3.91001 14.5982 4.74644 13.7685 4.75484 12.7488C4.7633 11.7206 3.93372 10.8772 2.90553 10.8687ZM2.89035 13.9092L2.88042 13.9091C2.23208 13.9038 1.70896 13.372 1.71429 12.7237C1.71962 12.0807 2.24694 11.5576 2.88981 11.5576H2.89974C3.54808 11.5629 4.0712 12.0947 4.06587 12.7431C4.06061 13.3861 3.53329 13.9092 2.89035 13.9092Z" fill="black"/>
<path d="M9.92311 3.85163L9.90746 3.85156C8.88779 3.85156 8.05136 4.6812 8.04303 5.70093C8.03457 6.72912 8.86415 7.57255 9.89234 7.58101L9.90799 7.58107C10.9276 7.58107 11.764 6.75144 11.7724 5.7317C11.7809 4.70345 10.9513 3.86002 9.92311 3.85163ZM9.90792 6.89217L9.898 6.89211C9.24966 6.88678 8.72654 6.35493 8.73187 5.70666C8.7372 5.06365 9.26451 4.54053 9.90739 4.54053L9.91731 4.54059C10.5657 4.54592 11.0888 5.07777 11.0834 5.72604C11.0782 6.36905 10.5509 6.89217 9.90792 6.89217Z" fill="black"/>
<path d="M14.9915 8.91901L14.9758 8.91895C13.9562 8.91895 13.1198 9.74859 13.1114 10.7683C13.1029 11.7965 13.9326 12.6399 14.9608 12.6484L14.9763 12.6485C15.9959 12.6485 16.8324 11.8188 16.8408 10.7991C16.8492 9.77083 16.0196 8.92747 14.9915 8.91901ZM14.9763 11.9596L14.9664 11.9595C14.318 11.9542 13.7949 11.4223 13.8002 10.774C13.8055 10.131 14.3328 9.60792 14.9757 9.60792L14.9856 9.60798C15.6339 9.61331 16.157 10.1452 16.1517 10.7934C16.1465 11.4364 15.6192 11.9596 14.9763 11.9596Z" fill="black"/>
<path d="M21.8324 3.42139L15.8047 9.46448L16.2924 9.95098L22.3202 3.90789L21.8324 3.42139Z" fill="black"/>
<path d="M11.2254 6.54785L10.7383 7.03497L13.658 9.95469L14.1451 9.46757L11.2254 6.54785Z" fill="black"/>
<path d="M8.58811 6.54736L3.7207 11.4148L4.20783 11.9019L9.07524 7.03448L8.58811 6.54736Z" fill="black"/>
<path d="M20.7891 7.82812V24.7334H25.0253V7.82812H20.7891ZM21.478 24.0445V8.51702H24.3364V24.0445H21.478Z" fill="black"/>
<path d="M14.2012 14.9229V24.7336H18.4374V14.9229H14.2012ZM17.7486 24.0446H14.8901V15.6119H17.7486V24.0446Z" fill="black"/>
<path d="M7.61328 14.416V24.7334H11.8495V14.416H7.61328ZM11.1607 24.0445H8.30225V15.105H11.1607V24.0445Z" fill="black"/>
<path d="M1.02539 16.9497V24.7333H5.26164L5.26171 16.9497H1.02539ZM4.57274 24.0444H1.71429V17.6386H4.57274V24.0444Z" fill="black"/>
</g>
</g>
<defs>
<clipPath id="clip0_136_1395">
<rect width="24" height="24" fill="white" transform="translate(0.5 0.733398)"/>
</clipPath>
</defs>
</svg>
