<svg width="24" height="24" viewBox="0 0 24 24" fill="none" xmlns="http://www.w3.org/2000/svg">
<g clip-path="url(#clip0_487_2653)">
<g clip-path="url(#clip1_487_2653)">
<g clip-path="url(#clip2_487_2653)">
<mask id="mask0_487_2653" style="mask-type:luminance" maskUnits="userSpaceOnUse" x="0" y="0" width="24" height="24">
<path d="M24 0H0V24H24V0Z" fill="white"/>
</mask>
<g mask="url(#mask0_487_2653)">
<path d="M10.4876 5.84805C8.23632 6.37295 6.42409 8.15828 5.87068 10.3964C5.31554 12.6417 5.95088 14.9302 7.57032 16.5183C8.14313 17.0801 8.48518 17.9805 8.48518 18.927V19.0781C8.48518 19.7013 8.7571 20.2621 9.1883 20.6486V21.8906C9.1883 23.0537 10.1346 23.9999 11.2977 23.9999H12.7039C13.867 23.9999 14.8133 23.0537 14.8133 21.8906V20.6486C15.2445 20.2621 15.5164 19.7014 15.5164 19.0781V18.9242C15.5164 17.9922 15.8768 17.0746 16.4803 16.4698C17.6724 15.2751 18.3289 13.6877 18.3289 11.9999C18.3289 7.96497 14.5898 4.89189 10.4876 5.84805ZM13.4071 21.8906C13.4071 22.2783 13.0916 22.5937 12.7039 22.5937H11.2977C10.91 22.5937 10.5946 22.2783 10.5946 21.8906V21.1874H13.4071V21.8906ZM15.4848 15.4765C14.6112 16.352 14.1102 17.6086 14.1102 18.9242V19.0781C14.1102 19.4658 13.7948 19.7812 13.4071 19.7812H10.5946C10.2069 19.7812 9.89143 19.4658 9.89143 19.0781V18.927C9.89143 17.5911 9.40426 16.3472 8.55488 15.5143C7.29441 14.2782 6.80134 12.4912 7.23577 10.7339C7.66351 9.00391 9.06526 7.62363 10.8069 7.21759C14.0259 6.46698 16.9227 8.86998 16.9227 11.9999C16.9227 13.3126 16.412 14.5473 15.4848 15.4765Z" fill="black"/>
<path d="M6.53087 5.53646L4.5421 3.54774C4.26755 3.27315 3.82234 3.27315 3.54774 3.54774C3.27315 3.82234 3.27315 4.26751 3.54774 4.5421L5.53651 6.53082C5.81105 6.80542 6.25632 6.80542 6.53087 6.53082C6.80546 6.25623 6.80546 5.81106 6.53087 5.53646Z" fill="black"/>
<path d="M3.5625 11.2969H0.703125C0.314812 11.2969 0 11.6117 0 12C0 12.3883 0.314812 12.7031 0.703125 12.7031H3.5625C3.95081 12.7031 4.26562 12.3883 4.26562 12C4.26562 11.6117 3.95081 11.2969 3.5625 11.2969Z" fill="black"/>
<path d="M23.2969 11.2969H20.4375C20.0492 11.2969 19.7344 11.6117 19.7344 12C19.7344 12.3883 20.0492 12.7031 20.4375 12.7031H23.2969C23.6852 12.7031 24 12.3883 24 12C24 11.6117 23.6852 11.2969 23.2969 11.2969Z" fill="black"/>
<path d="M20.4527 3.54774C20.1782 3.27315 19.733 3.27315 19.4584 3.54774L17.4696 5.53646C17.195 5.81101 17.195 6.25623 17.4696 6.53082C17.7442 6.80542 18.1894 6.80542 18.464 6.53082L20.4527 4.5421C20.7273 4.26756 20.7273 3.82234 20.4527 3.54774Z" fill="black"/>
<path d="M12 0C11.6117 0 11.2969 0.314812 11.2969 0.703125V3.5625C11.2969 3.95081 11.6117 4.26562 12 4.26562C12.3883 4.26562 12.7031 3.95081 12.7031 3.5625V0.703125C12.7031 0.314812 12.3883 0 12 0Z" fill="black"/>
<path d="M11.9991 8.48438C11.7101 8.48438 11.4157 8.51902 11.1245 8.58722C9.91212 8.8702 8.89714 9.86821 8.59896 11.0706C8.5055 11.4475 8.73523 11.8288 9.11211 11.9223C9.48907 12.0158 9.87036 11.786 9.96382 11.4091C10.1354 10.7174 10.7442 10.1201 11.4447 9.95652C11.6314 9.91279 11.818 9.89062 11.9991 9.89062C12.3874 9.89062 12.7023 9.57581 12.7023 9.1875C12.7023 8.79919 12.3874 8.48438 11.9991 8.48438Z" fill="black"/>
</g>
</g>
</g>
</g>
<defs>
<clipPath id="clip0_487_2653">
<rect width="24" height="24" fill="white"/>
</clipPath>
<clipPath id="clip1_487_2653">
<rect width="24" height="24" fill="white"/>
</clipPath>
<clipPath id="clip2_487_2653">
<rect width="24" height="24" fill="white"/>
</clipPath>
</defs>
</svg>
