<svg width="21" height="21" viewBox="0 0 21 21" fill="none" xmlns="http://www.w3.org/2000/svg">
<path d="M2.95312 0.450976C1.78008 0.450976 0.7875 1.44355 0.7875 2.6166V18.4979C0.7875 19.716 1.78008 20.6635 2.95312 20.6635H18.8344C20.0525 20.6635 21 19.716 21 18.4979V2.6166C21 1.44355 20.0525 0.450976 18.8344 0.450976H2.95312ZM16.759 17.776C9.54023 17.776 3.675 11.9559 3.675 4.69199C3.675 4.37617 3.90059 4.10547 4.21641 4.06035L7.14902 3.38359C7.19414 3.38359 7.23926 3.33848 7.28437 3.33848C7.6002 3.33848 7.82578 3.51895 7.91602 3.78965L9.26953 6.94785C9.31465 6.99297 9.35977 7.0832 9.35977 7.17344C9.35977 7.39902 9.22441 7.57949 9.08906 7.71484L7.37461 9.11348C8.4123 11.2791 10.1719 13.0838 12.3826 14.1215L13.7812 12.407C13.9166 12.2717 14.0971 12.1814 14.3227 12.1814C14.4129 12.1814 14.5031 12.1814 14.5482 12.2266L17.7064 13.5801C17.9771 13.6703 18.1125 13.8959 18.1125 14.1666C18.1125 14.2568 18.1125 14.302 18.1125 14.3471L17.4357 17.2797C17.3906 17.5955 17.1199 17.776 16.759 17.776Z" fill="#A5ACBA"/>
</svg>
