<svg width="18" height="17" viewBox="0 0 18 17" fill="none" xmlns="http://www.w3.org/2000/svg">
<path d="M9.2732 13.6914L4.89066 16.3357C4.74376 16.4336 4.58862 16.4746 4.42526 16.4585C4.2619 16.4421 4.11499 16.3931 3.98454 16.3116C3.85409 16.2137 3.75615 16.0913 3.69073 15.9443C3.6253 15.7974 3.61708 15.6341 3.66605 15.4543L4.81721 10.4594L0.948264 7.08052C0.801357 6.96653 0.711646 6.83196 0.67913 6.67682C0.646615 6.52169 0.654842 6.37067 0.703811 6.22376C0.75278 6.07686 0.834264 5.95443 0.948264 5.85649C1.06266 5.75856 1.21779 5.69333 1.41366 5.66081L6.53074 5.22009L8.51398 0.494378C8.57941 0.331017 8.68557 0.208595 8.83248 0.12711C8.97939 0.0456255 9.12629 0.00488281 9.2732 0.00488281C9.42011 0.00488281 9.56701 0.0456255 9.71392 0.12711C9.86083 0.208595 9.96702 0.331017 10.0324 0.494378L12.0157 5.22009L17.1328 5.66081C17.3286 5.69333 17.4838 5.75856 17.5982 5.85649C17.7122 5.95443 17.7937 6.07686 17.8426 6.22376C17.8916 6.37067 17.8998 6.52169 17.8673 6.67682C17.8348 6.83196 17.7451 6.96653 17.5982 7.08052L13.7292 10.4594L14.8804 15.4543C14.9294 15.6341 14.9211 15.7974 14.8557 15.9443C14.7903 16.0913 14.6923 16.2137 14.5619 16.3116C14.4314 16.3931 14.2845 16.4421 14.1212 16.4585C13.9578 16.4746 13.8027 16.4336 13.6558 16.3357L9.2732 13.6914Z" fill="#F4B73F"/>
</svg>
